<svg width="21" height="16" viewBox="0 0 21 16" fill="none" xmlns="http://www.w3.org/2000/svg">
<g id="Frame" clip-path="url(#clip0_53_856)">
<path id="Vector" d="M0 1.05C0.0711123 1.01111 0.0601719 0.933333 0.0820526 0.872222C0.273509 0.366667 0.743944 0.0222222 1.28002 0.0111111C1.34566 0.0111111 1.41678 0.0111111 1.48242 0.0111111C7.47773 0.00555556 13.4785 0.0166667 19.4738 0C20.2123 0 20.8085 0.35 20.9781 1.08333C20.9781 1.08889 20.9891 1.08889 20.9945 1.08889C20.9945 1.26667 20.9945 1.45 20.9945 1.62778C20.9289 1.66111 20.9344 1.73333 20.9179 1.78333C20.7265 2.31111 20.2561 2.65556 19.6981 2.66667C19.6325 2.66667 19.5613 2.66667 19.4957 2.66667C13.5059 2.66667 7.51602 2.66667 1.52618 2.66667C0.694712 2.66667 0.355561 2.43333 0.032821 1.64444C0.0273509 1.63333 0.0109403 1.63333 0 1.62222C0 1.43889 0 1.24444 0 1.05Z" fill="#333333"/>
<path id="Vector_2" d="M21.0004 14.9615C20.9347 14.9948 20.9402 15.067 20.9238 15.117C20.7324 15.6448 20.2619 15.9892 19.704 16.0003C19.6383 16.0003 19.5672 16.0003 19.5016 16.0003C13.5117 16.0003 7.52188 16.0003 1.53204 16.0003C0.700572 16.0003 0.361421 15.767 0.0386804 14.9781C0.0332102 14.967 0.0167997 14.967 0.00585938 14.9559C0.00585938 14.7615 0.00585938 14.567 0.00585938 14.3726C0.0769716 14.3337 0.0660313 14.2559 0.087912 14.1948C0.279368 13.6892 0.749803 13.3448 1.28041 13.3337C1.34605 13.3337 1.41716 13.3337 1.48281 13.3337C7.47812 13.3337 13.4789 13.3392 19.4742 13.3281C20.2127 13.3281 20.8089 13.6781 20.9785 14.4115C20.9785 14.417 20.9894 14.417 20.9949 14.417C21.0004 14.6003 21.0004 14.7837 21.0004 14.9615Z" fill="#333333"/>
<path id="Vector_3" d="M21.0004 8.29349C20.9347 8.32682 20.9402 8.39905 20.9238 8.44905C20.7324 8.97682 20.2619 9.32127 19.704 9.33238C19.6383 9.33238 19.5672 9.33238 19.5016 9.33238C13.5117 9.33238 7.52188 9.33238 1.53204 9.33238C0.700572 9.33238 0.361421 9.09905 0.0386804 8.31016C0.0332102 8.29905 0.0167997 8.29904 0.00585938 8.28793C0.00585938 8.09349 0.00585938 7.89904 0.00585938 7.7046C0.0769716 7.66571 0.0660313 7.58793 0.087912 7.52682C0.279368 7.02127 0.749803 6.67682 1.28041 6.66571C1.34605 6.66571 1.41716 6.66571 1.48281 6.66571C7.47812 6.66571 13.4789 6.67127 19.4742 6.66016C20.2127 6.66016 20.8089 7.01016 20.9785 7.74349C20.9785 7.74904 20.9894 7.74905 20.9949 7.74905C21.0004 7.93238 21.0004 8.11571 21.0004 8.29349Z" fill="#333333"/>
</g>
<defs>
<clipPath id="clip0_53_856">
<rect width="21" height="16" fill="white"/>
</clipPath>
</defs>
</svg>
