<svg width="58" height="58" viewBox="0 0 58 58" fill="none" xmlns="http://www.w3.org/2000/svg">
<g id="Frame" clip-path="url(#clip0_53_361)">
<g id="Group">
<path id="Vector" d="M29 0C12.9837 0 0 12.9837 0 29C0 45.0163 12.9837 58 29 58C45.0163 58 58 45.0163 58 29C58 12.9837 45.0163 0 29 0ZM29 54.375C14.9858 54.375 3.625 43.0142 3.625 29C3.625 14.9858 14.9858 3.625 29 3.625C43.0142 3.625 54.375 14.9858 54.375 29C54.375 43.0142 43.0142 54.375 29 54.375Z" fill="#FFFAFA"/>
<path id="Vector_2" d="M19.9375 23.5625C21.9395 23.5625 23.5625 21.9395 23.5625 19.9375C23.5625 17.9355 21.9395 16.3125 19.9375 16.3125C17.9355 16.3125 16.3125 17.9355 16.3125 19.9375C16.3125 21.9395 17.9355 23.5625 19.9375 23.5625Z" fill="#FFFAFA"/>
<path id="Vector_3" d="M38.0625 23.5625C40.0645 23.5625 41.6875 21.9395 41.6875 19.9375C41.6875 17.9355 40.0645 16.3125 38.0625 16.3125C36.0605 16.3125 34.4375 17.9355 34.4375 19.9375C34.4375 21.9395 36.0605 23.5625 38.0625 23.5625Z" fill="#FFFAFA"/>
<path id="Vector_4" d="M41.6875 29C41.6875 36.0071 36.0071 41.6875 29 41.6875C21.9929 41.6875 16.3125 36.0071 16.3125 29H12.6875C12.6875 38.0091 19.9909 45.3125 29 45.3125C38.0091 45.3125 45.3125 38.0091 45.3125 29H41.6875Z" fill="#FFFAFA"/>
</g>
</g>
<defs>
<clipPath id="clip0_53_361">
<rect width="58" height="58" fill="white"/>
</clipPath>
</defs>
</svg>
